<?xml version="1.0" ?><svg viewBox="0 0 129.88 129.88" xmlns="http://www.w3.org/2000/svg" xmlns:xlink="http://www.w3.org/1999/xlink"><defs><style>.cls-1{fill:url(#linear-gradient);}.cls-2,.cls-3,.cls-6{stroke:#fff;}.cls-2,.cls-3{stroke-miterlimit:10;stroke-width:5px;}.cls-2{fill:url(#linear-gradient-2);}.cls-3{fill:url(#linear-gradient-3);}.cls-4{fill:url(#linear-gradient-4);}.cls-5{fill:#fff;}.cls-6{fill:none;stroke-linecap:round;stroke-linejoin:round;stroke-width:4.6px;}</style><linearGradient gradientUnits="userSpaceOnUse" id="linear-gradient" x1="21.01" x2="108.81" y1="89.82" y2="39.13"><stop offset="0.02" stop-color="red"/><stop offset="1" stop-color="#9e005d"/></linearGradient><linearGradient id="linear-gradient-2" x1="76.24" x2="95.13" xlink:href="#linear-gradient" y1="63.65" y2="63.65"/><linearGradient id="linear-gradient-3" x1="43.32" x2="82.31" xlink:href="#linear-gradient" y1="65.94" y2="65.94"/><linearGradient id="linear-gradient-4" x1="36.53" x2="90.03" xlink:href="#linear-gradient" y1="87.67" y2="87.67"/></defs><title/><g data-name="Layer 1" id="Layer_1"><path class="cls-1" d="M86.3,13.78H43.52A13.65,13.65,0,0,0,31.7,20.6L10.31,57.65a13.67,13.67,0,0,0,0,13.64L31.7,108.34a13.65,13.65,0,0,0,11.82,6.82H86.3a13.63,13.63,0,0,0,11.81-6.82l21.4-37a13.67,13.67,0,0,0,0-13.64l-21.4-37A13.63,13.63,0,0,0,86.3,13.78Z"/><path class="cls-2" d="M76.24,71.88H86.9a8.23,8.23,0,1,0,0-16.45H76.24Z"/><path class="cls-3" d="M43.32,49.12V63.28a19.5,19.5,0,0,0,39,0V49.12Z"/><path class="cls-4" d="M46,92.29a9.89,9.89,0,0,1-9.42-6.83,1.87,1.87,0,0,1,.26-1.65,1.84,1.84,0,0,1,1.5-.76H88.19a1.82,1.82,0,0,1,1.49.76,1.81,1.81,0,0,1,.26,1.65,9.88,9.88,0,0,1-9.42,6.83Z"/><path class="cls-5" d="M88.19,84.89a8.06,8.06,0,0,1-7.67,5.56H46a8.05,8.05,0,0,1-7.66-5.56H88.19m0-3.69H38.38A3.7,3.7,0,0,0,34.87,86,11.74,11.74,0,0,0,46,94.14H80.52A11.73,11.73,0,0,0,91.69,86a3.68,3.68,0,0,0-3.5-4.84Z"/><path class="cls-6" d="M61.81,26.68a4.77,4.77,0,0,0-2.58,4.07,5.79,5.79,0,0,0,2,3.87c1.15,1,2.75,2.07,2.75,4.67a4.69,4.69,0,0,1-2.17,4.2"/><path class="cls-6" d="M70.15,26.68a4.77,4.77,0,0,0-2.58,4.07,5.79,5.79,0,0,0,2,3.87c1.15,1,2.75,2.07,2.75,4.67a4.69,4.69,0,0,1-2.17,4.2"/><path class="cls-6" d="M53.47,26.68a4.77,4.77,0,0,0-2.58,4.07,5.79,5.79,0,0,0,2,3.87c1.15,1,2.75,2.07,2.75,4.67a4.69,4.69,0,0,1-2.17,4.2"/><line class="cls-6" x1="73.1" x2="73.1" y1="56.73" y2="66.74"/></g></svg>